#!OML:ASF E:\CV Data\Top Level 1\Subject 1\Session 1\player.ASF
:FULLY-SPECIFIED
:DEGREES
362
root 8.24371 15.2017 -3.23885 -29.0791 -114.149 -10.4064
lowerback 21.7784 1.37066 6.72408
upperback 8.48759 2.43872 2.72649
thorax -2.67581 0.920167 -1.44304
lowerneck -17.3252 16.1603 -4.30793
upperneck 30.3158 21.88 8.23748
head 11.157 10.3197 6.53387
rclavicle 1.66979e-014 1.59028e-014
rhumerus -8.35108 -26.3511 -91.5848
rradius 20.9087
rwrist -26.0294
rhand -24.6004 -2.07627
rfingers 7.12502
rthumb 1.89751 -32.0476
lclavicle 1.66979e-014 1.59028e-014
lhumerus 40.8796 -18.5528 22.0434
lradius 21.3508
lwrist -14.261
lhand -26.1705 2.53291
lfingers 7.12502
lthumb 0.381115 32.5123
rfemur 14.627 11.4011 20.6061
rtibia 59.8227
rfoot -35.5739 1.28636
rtoes -4.42848
lfemur -75.5289 23.9191 -1.14941
ltibia 25.0747
lfoot 0.58783 4.40706
ltoes -8.4022
363
root 8.21343 15.1988 -3.19402 -28.8027 -113.84 -10.5526
lowerback 21.9065 1.43746 6.68457
upperback 8.56871 2.5158 2.74485
thorax -2.64939 0.955609 -1.42044
lowerneck -17.4149 16.1219 -4.35004
upperneck 30.1271 21.8821 8.09439
head 11.1181 10.3083 6.48547
rclavicle -3.57812e-014 -4.92986e-014
rhumerus -9.96151 -30.7067 -89.2143
rradius 19.5864
rwrist -23.8723
rhand -24.4919 -2.92647
rfingers 7.12502
rthumb 2.00227 -32.8968
lclavicle -3.57812e-014 -4.92986e-014
lhumerus 40.2981 -18.0587 20.3806
lradius 21.4983
lwrist -13.7484
lhand -25.8097 3.10056
lfingers 7.12502
lthumb 0.729588 33.0791
rfemur 14.5713 11.3459 20.2294
rtibia 59.8284
rfoot -35.705 1.0826
rtoes -4.94353
lfemur -75.0659 24.0325 -0.617452
ltibia 24.5554
lfoot 0.548485 4.27907
ltoes -8.54874
364
root 8.1849 15.1972 -3.1524 -28.5787 -113.489 -10.6259
lowerback 22.0282 1.51053 6.57483
upperback 8.64776 2.58767 2.79123
thorax -2.62832 0.98642 -1.3273
lowerneck -17.5003 16.0871 -4.39831
upperneck 29.9375 21.8903 7.95141
head 11.0769 10.2993 6.43782
rclavicle -6.97734e-014 -6.99722e-014
rhumerus -11.8545 -35.3028 -86.3666
rradius 18.3836
rwrist -21.6664
rhand -24.2801 -3.83147
rfingers 7.12502
rthumb 2.20689 -33.7998
lclavicle -6.97734e-014 -6.99722e-014
lhumerus 39.7062 -17.756 18.5429
lradius 21.649
lwrist -13.4238
lhand -25.5329 3.67494
lfingers 7.12502
lthumb 0.996882 33.6524
rfemur 14.5413 11.2849 19.9228
rtibia 59.8025
rfoot -35.8174 0.810815
rtoes -5.4201
lfemur -74.5922 24.1789 -0.200338
ltibia 24.0375
lfoot 0.444721 4.06537
ltoes -8.85789
365
root 8.15746 15.1962 -3.10933 -28.4141 -113.058 -10.5751
lowerback 22.1165 1.55574 6.47198
upperback 8.70657 2.62605 2.84534
thorax -2.615 1.00127 -1.22169
lowerneck -17.5823 16.0575 -4.42756
upperneck 29.7531 21.8983 7.81329
head 11.0388 10.2925 6.39
rclavicle 1.64991e-014 2.06736e-014
rhumerus -14.1464 -40.0842 -82.9415
rradius 17.3113
rwrist -19.4474
rhand -24.1225 -4.65492
rfingers 7.12502
rthumb 2.35906 -34.6216
lclavicle 1.64991e-014 2.06736e-014
lhumerus 39.0849 -17.6465 16.5409
lradius 21.7945
lwrist -13.2244
lhand -25.3654 4.1997
lfingers 7.12502
lthumb 1.15864 34.1763
rfemur 14.4697 11.1639 19.6311
rtibia 59.7603
rfoot -35.917 0.504998
rtoes -5.86589
lfemur -74.1427 24.2685 0.156601
ltibia 23.5243
lfoot 0.299489 3.91573
ltoes -9.12735
366
root 8.13132 15.1954 -3.06455 -28.2914 -112.579 -10.4291
lowerback 22.1897 1.58129 6.37599
upperback 8.74572 2.64261 2.90399
thorax -2.61697 1.00557 -1.11007
lowerneck -17.6652 16.0353 -4.44515
upperneck 29.5853 21.9109 7.68435
head 11.007 10.2893 6.3461
rclavicle -2.70347e-014 -5.725e-014
rhumerus -16.9904 -44.9692 -78.8005
rradius 16.3945
rwrist -17.1906
rhand -24.108 -5.39599
rfingers 7.12502
rthumb 2.37305 -35.3625
lclavicle -2.70347e-014 -5.725e-014
lhumerus 38.4385 -17.7819 14.324
lradius 21.9579
lwrist -12.9848
lhand -25.3098 4.67432
lfingers 7.12502
lthumb 1.2124 34.6506
rfemur 14.3519 11.0084 19.3539
rtibia 59.7114
rfoot -35.9993 0.152549
rtoes -6.33585
lfemur -73.6995 24.3295 0.468606
ltibia 23.0258
lfoot 0.137764 3.8666
ltoes -9.38552
367
root 8.10631 15.1946 -3.01831 -28.2349 -112.048 -10.1694
lowerback 22.2525 1.5824 6.29652
upperback 8.76515 2.63317 2.95942
thorax -2.63563 0.997614 -1.00526
lowerneck -17.754 16.0202 -4.43779
upperneck 29.44 21.9242 7.56427
head 10.9867 10.2884 6.30543
rclavicle 1.19271e-014 -5.56597e-014
rhumerus -20.5809 -49.775 -73.792
rradius 15.651
rwrist -14.9909
rhand -24.359 -5.98742
rfingers 7.12502
rthumb 2.13069 -35.9565
lclavicle 1.19271e-014 -5.56597e-014
lhumerus 37.7481 -18.1324 11.9402
lradius 22.1741
lwrist -12.6608
lhand -25.329 5.11288
lfingers 7.12502
lthumb 1.19382 35.0893
rfemur 14.1969 10.8068 19.0964
rtibia 59.6606
rfoot -36.0692 -0.249054
rtoes -6.84686
lfemur -73.2638 24.3527 0.74542
ltibia 22.5567
lfoot -0.0220188 3.95048
ltoes -9.52058
368
root 8.08221 15.1937 -2.97061 -28.2671 -111.473 -9.77653
lowerback 22.3055 1.56174 6.23984
upperback 8.77038 2.60177 3.02165
thorax -2.66496 0.979203 -0.900822
lowerneck -17.8572 16.0064 -4.43106
upperneck 29.313 21.9388 7.45108
head 10.9748 10.2874 6.27059
rclavicle 7.15625e-015 3.49861e-014
rhumerus -25.105 -54.2783 -67.7367
rradius 15.0861
rwrist -12.9299
rhand -24.8951 -6.42931
rfingers 7.12502
rthumb 1.61292 -36.403
lclavicle 7.15625e-015 3.49861e-014
lhumerus 37.0043 -18.5503 9.59239
lradius 22.3611
lwrist -12.3474
lhand -25.41 5.45325
lfingers 7.12502
lthumb 1.11561 35.4301
rfemur 14.0075 10.5641 18.8677
rtibia 59.6102
rfoot -36.1293 -0.684481
rtoes -7.36999
lfemur -72.8396 24.3392 0.999504
ltibia 22.1394
lfoot -0.168207 4.18993
ltoes -9.59507
